# xmcd
#
# Track frame offsets: 
#        150
#        20845
#        34664
#        67164
#        87252
#        105245
#        124765
#        154895
#        175873
#
# Disc length: 2495 seconds
#
# Revision: 0
# Processed by: cddbd v1.5.2PL0 Copyright (c) Steve Scherf et al.
# Submitted via: ExactAudioCopyFreeDBPlugin 1.0
#
DISCID=7109bd09
DTITLE=Patricia Wilder - Lay Down Daddy
DYEAR=2007
DGENRE=Blues
TTITLE0=Love Me Like You Say
TTITLE1=Be Your Fool
TTITLE2=Lay Down Daddy
TTITLE3=Ooh Pah Doo
TTITLE4=Rock Me Baby
TTITLE5=I'm Proud
TTITLE6=Change
TTITLE7=Hen House
TTITLE8=Heart of Mine
EXTD=
EXTT0=
EXTT1=
EXTT2=
EXTT3=
EXTT4=
EXTT5=
EXTT6=
EXTT7=
EXTT8=
PLAYORDER=
